<?xml version="1.0" encoding="utf-8" ?>
<svg xmlns="http://www.w3.org/2000/svg" xmlns:xlink="http://www.w3.org/1999/xlink" width="1024" height="1024">
	<path fill="white" d="M0 0L1024 0L1024 1024L0 1024L0 0Z"/>
	<path fill="#29364B" d="M866.143 689.039C876.813 688.8 872.442 696.398 878.197 699.783C885.732 704.215 895.988 702.245 902.897 705.837C904.295 706.564 905.656 707.678 905.962 709.317C906.254 710.886 905.415 712.316 904.483 713.5C898.559 721.024 887.317 722.734 878.378 723.617C873.469 724.272 868.244 724.091 863.292 723.958C858.762 723.837 843.935 724.274 841.279 720.377C839.176 717.294 842.104 710.909 843.138 707.851C842.055 705.775 840.894 703.046 841.537 700.663C842.334 697.708 845.221 696.619 847.696 695.412C855.614 696.464 859.791 692.888 866.143 689.039Z"/>
	<path fill="#EF6234" d="M738.276 405.67C743.95 405.382 750.338 406.793 755.066 410.005C758.448 412.302 760.764 415.677 761.461 419.727C762.412 425.253 760.143 430.561 756.991 434.984C747.033 448.961 728.946 456.188 712.607 458.958C713.599 462.261 714.666 465.227 717.073 467.793C720.886 471.858 726.383 473.151 731.776 473.236C750.182 473.527 766.051 460.285 778.487 448.249C780.282 446.512 781.854 445.096 784.462 445.13C785.362 445.63 785.652 445.661 786.219 446.575C787.311 448.336 787.062 449.884 786.616 451.78Q784.922 455.231 782.565 458.269C771.229 472.987 752.15 484.754 733.574 486.906C723.428 488.081 712.381 486.97 704.2 480.289C698.472 475.612 695.391 468.747 694.581 461.506C693.128 448.521 698.118 434.205 706.207 424.116C714.623 413.621 724.775 407.1 738.276 405.67Z"/>
	<path fill="white" d="M737.858 419.065C739.172 419.023 740.444 418.992 741.725 419.339C742.83 419.639 744.062 420.277 744.549 421.374C745.483 423.479 744.798 426.431 743.928 428.463C739.818 438.072 727.765 443.776 718.623 447.252L712.995 449.308C714.261 445.055 715.738 441.135 717.913 437.253C722.513 429.043 728.49 421.731 737.858 419.065Z"/>
	<path fill="#EF6234" d="M302.569 375.213C305.062 375.042 307.914 375.119 310.011 376.631Q310.36 376.882 310.683 377.168Q311.005 377.453 311.297 377.77Q311.589 378.086 311.847 378.43Q312.105 378.775 312.327 379.144Q312.549 379.512 312.733 379.902Q312.916 380.291 313.059 380.697Q313.203 381.103 313.304 381.521Q313.405 381.94 313.464 382.366C313.831 384.941 313.122 387.487 311.552 389.551C309.98 391.618 307.357 392.988 304.8 393.305C301.006 393.777 296.369 391.577 292.508 391.128C284.356 390.18 273.581 390.784 265.445 392.296C263.037 392.743 261.647 393.503 260.304 395.611C256.483 401.608 249.607 421.539 251.05 428.393C256.039 434.702 285.642 423.102 293.645 425.337C296.522 426.141 298.421 428.078 299.737 430.705C300.931 433.086 301.662 435.34 300.724 437.928Q300.57 438.363 300.367 438.778Q300.165 439.193 299.916 439.583Q299.667 439.972 299.376 440.331Q299.085 440.689 298.755 441.012Q298.425 441.335 298.06 441.618Q297.695 441.902 297.301 442.142Q296.906 442.382 296.487 442.576Q296.068 442.769 295.629 442.914C292.162 444.058 288.101 443.357 284.532 443.127C276.153 442.587 260.054 440.794 252.767 444.765C248.177 447.266 246.936 450.993 245.63 455.693C244.447 460.622 243.593 465.673 243.54 470.753C243.5 474.556 244.115 478.609 243.536 482.364C243.169 484.742 242.209 487.198 240.086 488.528C237.514 490.139 234.287 489.672 231.515 488.936C226.269 487.542 223.75 485.688 221.055 480.891C220.653 466.948 224.066 452.804 227.276 439.299C229.207 431.176 239.208 398.737 238.009 392.537C236.594 390.993 234.213 390.304 232.329 389.449C229.606 388.212 227.128 387.051 226.016 384.112C225.959 382.5 226.532 381.433 227.592 380.275C228.81 378.944 229.724 378.307 231.564 378.11C235.64 377.673 240.135 378.456 244.231 378.691C247.828 378.898 251.451 378.744 255.051 378.639C270.901 378.178 286.752 376.336 302.569 375.213Z"/>
	<path fill="#29364B" d="M422.002 670.714C437.265 669.882 452.856 670.275 468.132 670.704Q486.107 671.215 504.049 672.419Q521.992 673.623 539.874 675.518Q557.757 677.413 575.553 679.996Q593.349 682.579 611.032 685.847C624.192 688.309 636.955 691.787 649.926 695.007C653.707 695.946 657.644 697.66 661.413 698.232C661.56 698.254 661.707 698.272 661.853 698.292L662.376 699.081L661.902 698.672L661.482 699.073C658.57 697.661 654.042 697.17 650.811 696.44C622.191 689.976 591.619 686.229 562.284 685.434C552.394 684.57 542.278 684.616 532.346 684.402C477.098 683.214 383.853 687.427 334.764 711.387C340.87 699.86 345.564 688.435 349.131 675.906C373.039 671.975 397.836 671.728 422.002 670.714Z"/>
	<path fill="#186069" d="M587.278 542.185C593.819 541.64 601.283 542.653 606.842 546.347C610.744 548.941 614.26 552.958 615.139 557.674C616.111 562.891 613.851 568.094 610.842 572.244C601.398 585.268 580.401 594.423 564.998 596.923C565.832 601.44 566.88 605.391 570.746 608.272C574.508 611.075 579.289 611.306 583.773 610.659C606.758 607.343 624.396 590.278 637.716 572.575C639.298 570.473 640.403 568.393 643.266 568.118C644.64 567.986 645.829 568.518 646.809 569.463C648.349 570.946 648.566 572.351 648.678 574.416C646.506 578.131 643.847 581.777 641.282 585.232C627.546 603.735 606.597 620.152 583.224 623.433C572.971 624.872 560.905 624.013 552.458 617.413C546.903 613.072 543.83 607.672 543.089 600.632C541.538 585.89 547.101 570.759 556.302 559.366C564.307 549.455 574.622 543.536 587.278 542.185Z"/>
	<path fill="white" d="M586.594 555.571C588.444 555.385 590.388 555.223 592.243 555.384C593.948 555.532 595.892 556.18 596.838 557.704C598.109 559.752 597.572 563.383 596.778 565.52C593.556 574.195 582.153 580.267 574.303 584.008C571.331 585.279 568.433 586.288 565.317 587.145C566.55 583.051 567.837 578.961 569.445 574.995C572.925 566.411 577.824 559.247 586.594 555.571Z"/>
	<path fill="#186069" d="M517.792 502.561C519.416 502.436 521.03 502.335 522.657 502.483C528.439 503.01 532.007 506.408 535.598 510.589C533.851 512.753 531.519 515.226 530.257 517.704C524.526 528.958 517.523 591.125 517.459 605.369C517.445 608.604 517.653 611.718 518.719 614.805C520.395 619.658 523.156 621.201 527.517 623.336C526.436 624.512 525.306 625.591 523.985 626.499C519.445 629.621 511.21 632.419 505.76 631.2C502.811 630.54 500.512 628.558 498.949 626.026C496.411 621.914 495.673 616.881 495.479 612.129C494.685 592.657 502.787 554.29 507.31 534.693C499.201 543.97 492.077 554.895 485.18 565.115C479.886 572.96 468.125 593.1 461.335 597.898C458.428 599.953 454.597 601.148 451.048 600.37C438.743 597.672 428.874 568.256 424.906 557.071C423.273 552.469 421.774 546.341 419.013 542.352C418.895 542.182 418.771 542.016 418.649 541.847C413.249 556.174 403.024 597.904 402.998 612.151C402.991 616.311 403.659 619.416 405.338 623.202C401.102 625.402 396.816 626.872 391.984 625.661C388.307 624.74 385.087 621.777 383.193 618.574C380.561 614.121 380.152 608.51 380.757 603.458C381.71 595.511 385.096 587.454 387.675 579.902Q393.971 561.447 400.506 543.076C403.267 535.368 406.42 527.752 408.593 519.852C408.011 518.33 407.602 517.11 407.523 515.476C407.876 514.882 408.224 514.469 408.811 514.091C412.794 511.53 421.924 508.78 426.515 509.946C428.181 510.37 429.252 511.251 430.002 512.77C432.513 517.856 433.741 524.236 435.581 529.655C440.373 543.771 448.207 565.774 456.053 578.266C459.838 574.438 462.919 569.253 466.069 564.873L488.9 533.336C495.584 524.19 502.67 513.404 511.287 506.003C513.379 504.206 515.112 503.269 517.792 502.561Z"/>
	<path fill="#EF6234" d="M463.99 380.663C465.156 380.734 466.295 380.803 467.426 381.12C469.034 381.57 470.431 382.526 471.215 384.031C474.139 389.646 466.068 406.066 464.124 412.494C474.059 412.496 484.084 411.494 493.99 410.77C499.23 410.387 505.05 409.484 510.263 410.284C513.484 410.779 516.14 412.381 518.05 415.03C520.003 417.739 520.728 421.159 520.569 424.454C520.287 430.313 514.314 444.594 513.027 452.847C512.433 456.654 511.459 464.412 514.39 467.371C515.121 468.109 515.498 468.317 516.512 468.443C520.257 468.909 524.401 465.865 527.203 463.629C536.958 455.847 544.63 444.154 550.58 433.238C552.366 429.96 554.111 426.632 555.664 423.239C557.75 418.682 559.359 411.086 563.504 407.999C564.543 407.226 565.98 406.852 567.256 407.124C569.951 407.699 573.348 409.859 574.881 412.17C577.668 416.375 573.271 430.609 572.475 435.661C571.416 442.382 570.657 454.467 575.143 460.15C576.235 461.532 577.746 462.367 579.495 462.567C588.35 463.577 607.832 445.702 612.28 438.458C616.892 430.947 615.596 421.655 623.625 415.792C626.602 413.619 630.854 412.669 634.481 413.424C635.84 413.706 636.747 414.606 637.394 415.802C640.287 421.145 630.785 444.732 628.987 451.617C636.959 436.819 648.107 421.987 664.626 416.261C671.783 413.78 679.854 413.035 686.827 416.566C689.45 417.895 692.121 420.04 692.905 423.006C693.406 424.9 693.011 426.798 692.012 428.455C690.716 430.604 688.041 433.052 685.531 433.605C682.109 434.36 678.483 431.152 675.748 429.414Q675.052 429.436 674.356 429.472C653.662 430.605 639.448 452.85 634.153 470.765C632.931 474.899 633.875 482.743 630.904 485.808C629.189 487.576 626.608 488.578 624.151 488.485C620.695 488.354 617.033 486.883 614.761 484.226C609.355 477.903 610.624 464.453 611.017 456.746C602.726 465.304 592.034 476.38 579.512 477.617C574.068 478.154 568.888 476.628 564.733 473.031C557.77 467.003 554.684 456.449 554.08 447.56C548.373 457.122 542.031 466.611 533.821 474.229C527.719 479.891 520.109 484.706 511.452 484.217C506.674 483.947 502.011 481.887 498.878 478.212C494.188 472.712 493.825 465.357 494.294 458.505C495.428 446.129 499.587 434.117 501.374 421.82C487.36 422.375 471.644 425.094 457.538 426.752C453.404 435.131 444.413 460.303 447.226 469.181C448.002 471.629 449.656 473.587 451.994 474.677C461.274 479.003 468.624 471.338 476.719 468.57C478.109 468.094 478.68 468.146 479.994 468.732C480.823 470.089 480.85 471.212 480.52 472.721C479.623 476.812 476.524 479.434 473.077 481.563C465.188 486.434 449.997 490.919 440.827 488.702C436.124 487.564 432.156 484.721 429.735 480.514C425.04 472.355 427.174 462.555 429.477 454.047C418.935 463.179 409.017 475.476 394.165 476.874C389.275 477.334 384.658 475.928 380.983 472.636C374.897 467.184 373.182 458.977 372.935 451.183C363.518 462.419 353.259 481.841 337.649 484.245C330.685 485.317 322.247 483.234 316.667 478.852C313.885 476.667 311.949 473.884 311.516 470.329C310.994 466.048 311.197 461.711 311.708 457.44C312.437 451.35 319.155 415.979 322.348 412.876C324.388 410.895 327.928 410.088 330.678 410.201C333.02 410.298 335.639 410.816 337.222 412.697C342.799 419.323 330.783 446.527 329.988 456.677C329.709 460.238 329.886 464.456 332.438 467.239C333.792 468.716 335.373 469.533 337.397 469.495C341.52 469.418 345.048 466.339 348.001 463.773C356.512 456.378 363.332 446.382 368.093 436.219C371.223 429.538 374.312 417.578 379.665 412.717C381.656 410.908 384.248 409.989 386.936 410.282C390.633 410.684 392.343 412.243 394.671 415.001C392.616 427.627 386.803 439.472 389.918 452.506C390.636 455.508 391.892 458.651 394.7 460.271C396.755 461.458 399.181 461.443 401.406 460.779C409.391 458.396 426.283 443.289 431.787 436.782C433.707 434.513 435.127 432.03 436.562 429.441C432.52 429.648 424.522 430.805 421.31 427.952C419.785 426.598 419.072 424.378 418.949 422.395C418.818 420.278 419.33 417.875 420.874 416.326C424.146 413.045 437.205 414.504 442.098 414.464Q445.538 408.338 448.321 401.887C450.398 396.958 452.1 391.331 455.007 386.835C457.361 383.196 459.767 381.55 463.99 380.663Z"/>
	<path fill="#29364B" d="M832.119 333.076C841.011 332.472 848.535 333.665 856.363 338.153C863.197 342.071 870.383 348.149 872.374 356.079C874.358 363.979 870.528 367.602 867.002 373.776C863.126 380.565 865.318 387.037 867.316 393.947C860.695 397.295 861.016 400.943 857.606 406.861C852.67 415.429 847.343 406.728 840.715 408.621C839.572 409.465 839.344 409.994 838.911 411.334C839.554 415.046 845.634 419.158 847.999 422.321Q848.932 423.589 849.754 424.932Q850.575 426.275 851.278 427.684Q851.982 429.092 852.562 430.556Q853.142 432.019 853.595 433.527C856.781 444.211 858.365 456.019 858.024 467.188C857.864 472.422 856.951 478.221 857.643 483.403C857.922 485.496 858.78 487.352 860.114 488.982C865.382 495.418 889.071 514.066 896.418 516.75C899.32 517.81 902.491 517.484 905.504 517.919C907.896 518.264 910.232 519.501 911.643 521.468C911.692 522.6 911.564 523.385 911.123 524.441C909.395 528.583 904.797 535.492 900.605 537.237C896.916 536.523 890.367 527.176 886.079 524.394C872.595 515.644 857.154 512.687 843.671 502.693C842.117 513.89 840.128 523.857 843.452 534.933C841.219 536.372 838.855 537.501 836.474 538.664Q846.005 568.278 853.75 598.409C855.362 604.561 857.774 610.995 858.604 617.292C859.795 626.336 857.655 636.309 857.818 645.533C858.071 659.796 860.739 674.025 862.926 688.086C860.906 690.042 858.741 691.658 856.169 692.83C853.424 694.082 851.076 694.466 848.251 693.36C845.899 689.349 844.921 683.87 843.375 679.447C839.639 668.76 832.922 655.46 831.958 644.333C831.316 636.919 832.562 629.565 833.855 622.299C828.887 611.42 822.385 600.892 816.627 590.391C814.742 593.896 813.346 597.786 811.728 601.427Q807.554 610.634 803.276 619.792C801.699 623.191 800.283 626.863 798.149 629.955C796.51 632.329 794.354 634.566 791.697 635.787C787.561 637.687 782.536 638.676 778.191 640.126C771.679 642.298 765.481 645.064 759.292 648.009C751.657 651.736 743.933 655.377 736.44 659.381C733.068 661.182 729.753 663.636 726.301 665.18C724.564 665.957 723.268 665.119 721.622 664.518C722.032 665.893 724.905 666.339 725.918 667.263C729.172 670.23 721.804 681.13 720.856 685.064C718.929 693.059 724.99 699.878 724.314 706.659C724.149 708.312 723.353 710.179 721.919 711.115C720.84 711.819 719.353 711.884 718.113 711.686C712.889 710.851 707.91 705.089 704.958 700.954C700.763 695.077 686.521 665.747 688.44 659.298C689.627 655.308 698.275 651.867 701.779 650.246C704.198 649.128 708.374 646.682 711.042 648.047C714.01 649.566 715.145 655.602 716.453 658.606C717.412 660.81 718.444 663.144 720.777 664.042L720.919 663.568C720.346 662.86 719.794 662.138 719.23 661.423C717.172 658.814 716.031 655.699 714.722 652.669C718.843 649.252 723.946 646.725 728.464 643.846C738.189 637.65 747.577 631.125 757.606 625.393C763.443 622.057 769.815 619.614 775.528 616.14C778.553 608.9 779.953 600.888 781.677 593.261C784.632 580.186 787.226 566.991 790.315 553.959C784.044 550.335 778.386 545.432 773.075 540.55C771.562 542.262 769.767 544.072 768.721 546.109C766.134 551.144 766.91 557.964 763.502 562.458C762.295 564.049 760.616 565.029 758.613 565.188C756.043 565.391 753.42 564.358 751.531 562.637Q751.117 562.266 750.744 561.853Q750.372 561.44 750.045 560.99Q749.719 560.539 749.443 560.057Q749.166 559.574 748.943 559.064Q748.72 558.555 748.552 558.025Q748.385 557.494 748.275 556.949Q748.165 556.404 748.114 555.85Q748.063 555.296 748.071 554.74C748.174 547.997 753.954 543.139 758.467 538.894C760.018 531.765 761.768 524.671 763.311 517.533C765.641 506.746 767.279 494.947 772.482 485.091C776.785 476.941 784.167 470.722 787.349 461.85C791.862 449.266 791.074 436.176 797.401 423.716C801.516 415.611 806.886 413.291 815.087 410.651C816.412 406.867 818.286 402.685 818.361 398.647C818.451 393.811 814.757 391.594 811.788 388.383C805.668 381.765 804.234 374.469 804.546 365.797C801.159 370.973 799.066 376.76 796.707 382.448C794.216 375.15 793.699 369.726 795.416 362.14C791.761 363.794 788.007 365.276 784.308 366.832C788.545 360.225 796.381 351.585 802.293 346.399C805.778 343.342 808.637 342.525 813.242 342.842C819.051 337.61 824.543 334.916 832.119 333.076Z"/>
	<path fill="#29364B" d="M275.73 502.536C283.114 501.994 289.832 502.591 296.292 506.52Q296.849 506.858 297.389 507.223Q297.929 507.588 298.45 507.98Q298.972 508.371 299.473 508.788Q299.974 509.205 300.454 509.646Q300.934 510.087 301.392 510.551Q301.849 511.016 302.283 511.502Q302.717 511.988 303.127 512.495Q303.536 513.003 303.92 513.53Q304.304 514.056 304.661 514.602Q305.018 515.147 305.348 515.709Q305.678 516.271 305.979 516.849Q306.281 517.427 306.554 518.019Q306.826 518.611 307.069 519.216Q307.312 519.821 307.525 520.437Q307.738 521.053 307.92 521.679Q308.102 522.305 308.253 522.939C309.427 527.693 309.428 532.877 307.942 537.563C303.069 552.933 289.705 550.743 285.78 557.331C285.894 558.772 285.937 558.394 287.054 559.117C300.815 568.038 313.027 576.982 322.66 590.54Q323.419 591.598 324.151 592.675Q324.883 593.752 325.588 594.847Q326.293 595.943 326.97 597.055Q327.647 598.167 328.296 599.297Q328.945 600.426 329.566 601.571Q330.186 602.716 330.778 603.876Q331.369 605.036 331.931 606.211Q332.494 607.386 333.026 608.574Q333.559 609.763 334.061 610.964Q334.564 612.166 335.036 613.379Q335.508 614.593 335.95 615.818Q336.391 617.043 336.802 618.279Q337.213 619.515 337.592 620.761Q337.972 622.007 338.32 623.262Q338.668 624.517 338.985 625.78Q339.301 627.043 339.586 628.314Q339.871 629.585 340.123 630.862Q340.376 632.14 340.597 633.424Q340.817 634.707 341.006 635.996Q341.194 637.284 341.35 638.577Q341.506 639.87 341.629 641.167Q341.752 642.463 341.843 643.762Q341.934 645.062 341.992 646.363Q342.05 647.664 342.076 648.966Q342.101 650.268 342.094 651.57Q342.087 652.872 342.047 654.174Q342.007 655.476 341.934 656.776Q341.861 658.076 341.756 659.375Q341.651 660.673 341.513 661.968Q341.376 663.263 341.205 664.554Q341.035 665.845 340.832 667.131Q340.63 668.418 340.395 669.699C335.933 695.332 319.762 719.626 298.587 734.492C275.705 750.557 249.585 756.624 222.043 751.881C197.345 747.439 176.186 735.039 160.259 715.598Q159.466 714.619 158.697 713.621Q157.928 712.623 157.183 711.607Q156.439 710.59 155.719 709.556Q155 708.522 154.306 707.47Q153.612 706.419 152.944 705.351Q152.276 704.283 151.634 703.198Q150.992 702.114 150.377 701.015Q149.761 699.915 149.173 698.801Q148.585 697.687 148.024 696.559Q147.464 695.431 146.93 694.289Q146.397 693.148 145.892 691.993Q145.387 690.839 144.91 689.673Q144.434 688.507 143.985 687.329Q143.537 686.152 143.118 684.964Q142.699 683.776 142.309 682.578Q141.918 681.38 141.558 680.173Q141.197 678.965 140.866 677.75Q140.534 676.534 140.233 675.311Q139.931 674.088 139.66 672.857Q139.388 671.627 139.147 670.391Q138.905 669.154 138.694 667.912Q138.483 666.67 138.302 665.423Q138.122 664.176 137.971 662.925Q137.821 661.674 137.701 660.42Q137.582 659.166 137.492 657.909Q137.403 656.653 137.345 655.394Q137.287 654.135 137.259 652.876Q137.231 651.616 137.234 650.356Q137.238 649.097 137.271 647.837Q137.305 646.578 137.37 645.319Q137.435 644.061 137.53 642.805Q137.625 641.549 137.751 640.295C140.612 613.57 153.375 588.799 174.426 571.909C198.373 552.695 227.509 545.871 257.731 549.178C255.918 546.071 254.323 543.164 253.337 539.674C251.212 532.154 251.656 523.431 255.627 516.587C260.135 508.818 267.223 504.684 275.73 502.536Z"/>
	<path fill="white" d="M279.003 511.604C282.872 511.71 286.635 512.667 289.97 514.654C294.362 517.27 297.876 521.563 298.92 526.635C299.638 530.125 299.115 533.727 297.099 536.703C294.104 541.124 289.347 542.24 284.415 543.05C279.892 542.395 275.906 541.059 271.911 538.815C268.132 536.691 264.287 533.702 263.201 529.293C262.479 526.363 263.235 523.159 264.809 520.634C267.856 515.744 273.557 512.813 279.003 511.604Z"/>
	<path fill="white" d="M234.234 561.701C234.572 561.659 234.909 561.606 235.249 561.575C257.106 559.566 280.655 567.994 297.329 581.919Q298.174 582.622 299.002 583.345Q299.83 584.068 300.639 584.811Q301.449 585.554 302.24 586.317Q303.031 587.08 303.803 587.862Q304.576 588.644 305.329 589.445Q306.081 590.245 306.814 591.064Q307.547 591.883 308.26 592.72Q308.972 593.557 309.664 594.411Q310.356 595.264 311.027 596.135Q311.698 597.006 312.347 597.893Q312.996 598.78 313.623 599.682Q314.25 600.585 314.855 601.502Q315.46 602.42 316.042 603.352Q316.624 604.284 317.183 605.231Q317.742 606.177 318.278 607.136Q318.814 608.096 319.326 609.068Q319.838 610.041 320.326 611.026Q320.814 612.01 321.277 613.007Q321.741 614.003 322.18 615.011Q322.619 616.019 323.033 617.037Q323.448 618.055 323.837 619.082Q324.226 620.11 324.589 621.147Q324.953 622.184 325.291 623.23Q325.63 624.276 325.942 625.33Q326.254 626.383 326.541 627.444Q326.827 628.505 327.088 629.573Q327.348 630.641 327.582 631.715Q327.816 632.789 328.024 633.868Q328.232 634.947 328.413 636.031Q328.594 637.115 328.748 638.203Q328.903 639.291 329.03 640.383Q329.158 641.475 329.259 642.569Q329.36 643.663 329.434 644.758Q329.508 645.854 329.555 646.952Q329.602 648.049 329.621 649.147Q329.641 650.245 329.633 651.343Q329.625 652.442 329.59 653.539Q329.555 654.637 329.492 655.734Q329.43 656.83 329.34 657.925Q329.25 659.02 329.133 660.112Q329.016 661.204 328.872 662.293Q328.728 663.382 328.557 664.466Q328.386 665.551 328.188 666.632Q327.99 667.712 327.765 668.787Q327.54 669.862 327.288 670.931Q327.037 672 326.759 673.063Q326.481 674.125 326.176 675.181Q325.872 676.236 325.541 677.283Q325.211 678.331 324.854 679.37Q324.498 680.409 324.116 681.438Q323.733 682.468 323.326 683.488Q322.918 684.507 322.485 685.517Q322.052 686.526 321.594 687.524Q321.136 688.523 320.654 689.509Q320.171 690.496 319.664 691.47Q319.157 692.445 318.626 693.406Q318.095 694.367 317.54 695.315Q316.985 696.263 316.407 697.197Q315.828 698.131 315.227 699.05Q314.626 699.969 314.002 700.873Q313.378 701.776 312.732 702.664Q312.085 703.553 311.417 704.424Q310.749 705.296 310.059 706.151Q309.37 707.006 308.659 707.843C292.625 726.929 270.53 738.098 245.75 740.138C245.452 740.173 245.155 740.213 244.857 740.244C224.222 742.365 200.897 734.361 184.864 721.544C166.319 706.719 153.025 684.515 150.586 660.746C148.13 636.807 154.823 613.321 170.092 594.6C186.362 574.65 208.923 564.281 234.234 561.701Z"/>
	<path fill="#29364B" d="M237.59 566.216C260.038 565.428 280.592 572.574 297.268 587.652Q298.028 588.348 298.77 589.061Q299.513 589.775 300.238 590.506Q300.964 591.238 301.671 591.986Q302.379 592.735 303.068 593.501Q303.757 594.266 304.427 595.048Q305.098 595.83 305.749 596.628Q306.4 597.426 307.032 598.239Q307.664 599.053 308.276 599.881Q308.888 600.71 309.48 601.552Q310.072 602.396 310.644 603.252Q311.215 604.109 311.766 604.98Q312.316 605.851 312.846 606.734Q313.375 607.618 313.883 608.514Q314.391 609.41 314.877 610.318Q315.363 611.226 315.827 612.146Q316.291 613.065 316.733 613.996Q317.174 614.926 317.593 615.867Q318.012 616.808 318.409 617.759Q318.805 618.71 319.178 619.67Q319.551 620.63 319.901 621.599Q320.251 622.567 320.578 623.544Q320.904 624.521 321.207 625.506Q321.51 626.49 321.788 627.482Q322.067 628.473 322.322 629.471Q322.577 630.469 322.808 631.473Q323.038 632.477 323.245 633.486Q323.451 634.495 323.633 635.509Q323.815 636.523 323.972 637.541Q324.13 638.559 324.263 639.58Q324.396 640.602 324.504 641.626Q324.612 642.65 324.695 643.677Q324.778 644.704 324.837 645.732C325.951 669.333 318.267 690.984 302.273 708.397C286.326 725.759 265.519 734.688 242.125 735.725Q240.134 735.781 238.143 735.745Q236.152 735.709 234.164 735.58Q232.177 735.451 230.198 735.23Q228.219 735.009 226.252 734.695Q224.285 734.382 222.335 733.978Q220.385 733.573 218.456 733.078Q216.527 732.584 214.623 732Q212.719 731.416 210.844 730.743Q208.969 730.071 207.128 729.313Q205.287 728.554 203.482 727.71Q201.678 726.867 199.916 725.94Q198.153 725.014 196.435 724.006Q194.717 722.998 193.048 721.912Q191.379 720.825 189.762 719.662Q188.146 718.499 186.585 717.262Q185.024 716.024 183.523 714.716Q182.741 714.024 181.976 713.313Q181.212 712.602 180.465 711.873Q179.718 711.143 178.989 710.395Q178.26 709.648 177.55 708.882Q176.839 708.117 176.148 707.334Q175.457 706.552 174.785 705.753Q174.113 704.953 173.461 704.138Q172.809 703.322 172.177 702.491Q171.546 701.659 170.935 700.813Q170.323 699.966 169.733 699.105Q169.143 698.243 168.574 697.368Q168.006 696.492 167.458 695.603Q166.911 694.713 166.386 693.811Q165.861 692.908 165.358 691.993Q164.856 691.078 164.375 690.151Q163.895 689.224 163.438 688.285Q162.981 687.346 162.547 686.397Q162.113 685.447 161.702 684.487Q161.292 683.527 160.905 682.557Q160.518 681.587 160.155 680.608Q159.792 679.629 159.453 678.641Q159.115 677.654 158.8 676.658Q158.486 675.662 158.196 674.659Q157.906 673.656 157.641 672.646Q157.376 671.636 157.136 670.62Q156.896 669.604 156.68 668.582Q156.465 667.56 156.275 666.534Q156.085 665.507 155.921 664.476Q155.756 663.445 155.616 662.41Q155.477 661.375 155.363 660.337Q155.249 659.299 155.161 658.259Q155.073 657.218 155.01 656.176C153.717 633.54 160.727 611.529 176.001 594.585C191.942 576.901 214.012 567.432 237.59 566.216Z"/>
	<path fill="white" d="M233.214 569.684C233.289 569.672 233.363 569.655 233.438 569.648C253.459 567.91 273.449 573.06 289.491 585.302Q290.302 585.924 291.096 586.565Q291.891 587.207 292.67 587.868Q293.449 588.53 294.211 589.21Q294.973 589.89 295.719 590.589Q296.464 591.288 297.191 592.005Q297.919 592.722 298.628 593.457Q299.338 594.192 300.029 594.945Q300.72 595.697 301.392 596.466Q302.065 597.235 302.718 598.021Q303.371 598.807 304.004 599.608Q304.637 600.41 305.251 601.227Q305.864 602.044 306.457 602.876Q307.05 603.708 307.622 604.554Q308.194 605.401 308.745 606.261Q309.296 607.121 309.825 607.995Q310.354 608.869 310.862 609.755Q311.37 610.642 311.855 611.541Q312.341 612.44 312.804 613.35Q313.267 614.261 313.707 615.183Q314.148 616.104 314.565 617.037Q314.983 617.969 315.377 618.912Q315.771 619.854 316.142 620.806Q316.513 621.758 316.86 622.719Q317.207 623.68 317.53 624.649Q317.853 625.618 318.152 626.595Q318.451 627.572 318.726 628.556Q319 629.54 319.251 630.53Q319.501 631.521 319.727 632.517Q319.952 633.514 320.153 634.515Q320.354 635.517 320.53 636.523Q320.706 637.53 320.857 638.54Q321.008 639.55 321.134 640.564C323.879 662.41 317.962 683.43 304.42 700.801C289.928 719.392 270.28 729.548 247.119 732.347C226.516 733.603 206.562 728.216 190.068 715.578C173.468 702.859 161.438 682.524 158.74 661.734Q158.599 660.72 158.484 659.704Q158.369 658.687 158.28 657.667Q158.191 656.648 158.127 655.627Q158.063 654.606 158.025 653.583Q157.987 652.56 157.974 651.537Q157.962 650.514 157.975 649.491Q157.988 648.468 158.027 647.445Q158.066 646.422 158.131 645.401Q158.196 644.38 158.286 643.361Q158.376 642.341 158.492 641.325Q158.608 640.308 158.749 639.294Q158.89 638.281 159.057 637.271Q159.224 636.262 159.416 635.257Q159.608 634.252 159.825 633.252Q160.043 632.252 160.285 631.258Q160.527 630.263 160.795 629.276Q161.062 628.288 161.354 627.307Q161.646 626.326 161.962 625.353Q162.279 624.38 162.619 623.415Q162.96 622.45 163.325 621.494Q163.69 620.538 164.079 619.592Q164.468 618.645 164.88 617.709Q165.293 616.772 165.729 615.847Q166.165 614.921 166.624 614.006Q167.083 613.092 167.565 612.189Q168.047 611.286 168.551 610.396Q169.055 609.505 169.582 608.628Q170.109 607.751 170.657 606.887Q171.205 606.023 171.775 605.173Q172.345 604.323 172.937 603.488Q173.528 602.653 174.14 601.833Q174.752 601.013 175.384 600.208C189.72 581.758 210.554 572.621 233.214 569.684Z"/>
	<path fill="#29364B" d="M217.82 702.435L221.666 702.637C221.655 702.728 221.617 702.82 221.633 702.91C221.776 703.704 221.68 703.924 221.419 704.716L221.03 703.874L221.493 704.432L214.994 721.741C214.39 721.956 213.934 722.106 213.284 722.125C212.569 722.147 212.441 721.791 211.934 721.337C210.933 717.677 216.264 706.438 217.82 702.435Z"/>
	<path fill="#29364B" d="M187.097 666.905C188.664 667.635 189.026 669.316 189.74 670.854C183.439 673.061 177.434 676.02 171.127 678.254L169.988 678.51C169.02 677.733 169.091 677.722 168.877 676.486C170.203 673.969 183.612 668.556 187.097 666.905Z"/>
	<path fill="#29364B" d="M169.097 618.783C175.237 621.338 182.534 623.677 188.107 627.253C188.277 628.904 187.702 629.667 187.022 631.158C183.117 630.415 171.957 625.053 168.427 622.899C168.089 621.338 168.642 620.296 169.097 618.783Z"/>
	<path fill="#29364B" d="M291.16 667.086C297.544 670.066 305.478 672.58 311.108 676.736C311.464 678.121 310.797 678.995 310.276 680.291C307.872 680.471 294.086 673.029 290.802 671.29C290.273 669.786 290.819 668.622 291.16 667.086Z"/>
	<path fill="#29364B" d="M206.754 585.613L207.963 585.958C209.768 588.18 216.789 603.92 216.648 606.317L214.221 607.792C213.624 607.831 213.674 607.957 213.267 607.57C211.809 606.186 204.986 589.897 204.79 587.485L206.754 585.613Z"/>
	<path fill="#29364B" d="M262.474 698.408C264.797 700.492 269.384 714.391 270.849 718.356L267.563 720.523L267.251 720.729C265.656 719.8 260.661 703.646 259.618 700.612C260.185 699.413 261.346 699.061 262.474 698.408Z"/>
	<path fill="#29364B" d="M305.838 617.553C306.874 618.835 307.606 620.856 308.364 622.348C302.111 624.499 295.8 626.626 289.723 629.239L289.247 629.282C288.317 628.309 288.233 627.481 287.954 626.208C289.187 623.592 302.314 619.111 305.838 617.553Z"/>
	<path fill="#29364B" d="M254.911 582.847C256.259 582.914 257.258 583.1 258.545 583.507C259.795 585.891 255.172 602.816 254.332 606.526C252.848 606.507 251.674 606.514 250.282 605.903C250.201 601.052 253.743 588.353 254.911 582.847Z"/>
	<path fill="#29364B" d="M221.481 646.19L223.346 647.37C229.533 655.227 237.302 662.601 246.447 666.848C236.239 672.695 226.261 678.874 216.202 684.969C208.991 689.337 201.519 693.504 194.666 698.421C203.305 680.871 212.935 663.812 221.481 646.19Z"/>
	<path fill="#EF6234" d="M221.481 646.19C220.4 643.249 220.941 639.64 222.275 636.858C223.527 634.249 225.448 632.33 227.771 630.647C234.287 625.924 242.092 622.77 248.981 618.544C260.942 611.206 272.525 602.69 283.741 594.273C278.725 607.471 272.128 622.535 268.562 635.987C266.641 643.233 267.972 651.381 265.087 658.305C263.562 661.966 260.687 665.791 256.985 667.435C255.175 668.239 251.951 669.48 249.99 668.563C248.908 668.057 248.411 667.126 248.143 666.02C246.597 659.657 251.406 649.211 244.557 644.548C241.755 642.64 237.611 642.695 234.434 643.423C230.619 644.297 227.075 646.229 223.346 647.37L221.481 646.19Z"/>
</svg>
