<?xml version="1.0" encoding="utf-8" ?>
<svg xmlns="http://www.w3.org/2000/svg" xmlns:xlink="http://www.w3.org/1999/xlink" width="1024" height="1024">
	
	<path fill="#FDFEFE" d="M954.932 716.421C959.068 718.168 962.977 718.662 967.393 719.124C958.181 725.578 949.07 730.949 937.625 731.663C933.054 731.555 928.622 731.362 924.083 730.736C930.117 726.91 937.016 724.931 943.569 722.207C947.524 720.562 951.22 718.551 954.932 716.421Z"/>
	<path fill="#FDFEFE" d="M886.837 253.697C898.766 252.851 903.508 261.394 912.882 266.358C920.458 270.371 927.409 269.157 935.216 266.867C940.002 270.461 941.122 274.656 941.933 280.305C939.065 280.686 934.04 275.985 931.717 274.223C926.668 275.011 921.553 275.912 916.461 274.916C906.479 272.962 901.441 264.902 894.18 258.889C891.998 257.082 888.369 256.046 886.837 253.697Z"/>
	<path fill="#FDFEFE" d="M960.795 493.065L961.851 493.057C962.351 494.149 962.016 495.241 961.767 496.37C961.194 498.979 959.34 502.977 956.954 504.366C948.821 509.102 930.677 506.609 922.002 504.328C921.449 504.137 920.814 504.046 920.412 503.59C918.726 501.679 919.003 496.859 918.871 494.387C933.1 495.908 946.801 496.903 960.795 493.065Z"/>
	<path fill="#FDFEFE" d="M993.861 711.079C997.753 713.837 1000.52 721.31 1002.64 725.58C1001.25 727.074 999.814 728.491 998.182 729.728C990.499 735.556 980.385 736.229 971.342 738.487C965.182 740.025 959.186 742.231 952.806 742.655C946.555 743.072 940.303 742.155 934.123 741.323C930.426 740.922 925.826 740.95 923.147 738.051C922.969 737.313 922.737 736.897 922.97 736.143C923.29 735.106 923.919 734.159 924.982 733.833C926.646 733.323 939.777 735.34 946.307 733.932C953.345 732.414 960.098 728.576 965.71 724.16C967.567 722.699 969.576 720.617 971.687 719.583C974.253 718.328 977.632 717.805 980.395 717.006C985.348 715.574 989.389 713.649 993.861 711.079Z"/>
	<path fill="#FDFEFE" d="M762.986 695.444C770.127 695.011 778.26 699.896 785.214 701.72C791.215 703.294 797.455 704.238 803.556 705.36L806.114 710.122C796.064 709.947 787.917 706.995 779.296 702.045C775.904 700.096 772.474 697.871 768.585 697.101L767.782 697.645C773.738 702.948 786.129 709.427 793.857 711.637C798.545 712.978 803.23 713.487 808.091 713.548C808.204 713.7 808.313 713.855 808.431 714.003C813.921 720.913 819.964 721.953 828.223 723.11C827.149 728.389 826.391 732.982 823.586 737.662C822.416 739.196 821.022 740.586 819.713 742.002C815.928 740.685 808.029 738.412 805.695 735.182C805.976 733.841 806.254 733.134 805.809 731.786L804.528 731.419C802.831 732.068 801.438 732.84 799.657 732.078C788.647 727.371 763.379 716.542 759.292 704.945C758.876 703.766 758.546 702.904 759.136 701.756C760.963 702.449 763.014 704.871 764.517 706.183C770.135 711.088 779.177 718.595 786.79 719.324L787.262 718.846C784.506 714.739 776.552 711.709 772.344 708.882C768.628 706.386 764.679 703.317 761.63 700.026C760.793 699.122 760.368 698.937 760.414 697.689L762.986 695.444Z"/>
	<path fill="#FDFEFE" d="M873.006 264.158C877.713 266.788 882.183 269.902 886.514 273.111C896.767 280.709 902.615 287.112 906.665 299.267C908.461 297.337 910.27 295.315 912.488 293.859C913.964 292.891 915.901 292.156 917.67 292.682C919.31 293.169 920.133 294.623 920.826 296.066C924.389 303.488 915.724 305.933 913.755 311.776C911.695 317.885 917.411 326.657 920.237 331.988C911.35 336.29 905.022 336.282 898.172 344.505C894.448 349.588 890.787 354.608 886.292 359.046C886.887 356.463 887.364 353.602 888.373 351.163C889.794 347.727 892.187 344.545 893.204 340.977C894.663 335.861 894.024 329.653 893.99 324.358C890.355 326.312 886.843 327.711 882.847 328.734L882.198 328.459C872.697 324.511 867.881 311.343 863.487 302.715C871.909 293.946 867.593 289.621 868.902 279.423C869.575 274.182 871.383 269.163 873.006 264.158Z"/>
	<path d="M874.431 281.051C877.006 281.192 879.758 281.199 882.279 281.745C884.287 282.179 885.255 282.806 886.339 284.546C883.048 284.496 878.208 284.705 875.314 282.99C874.534 282.527 874.632 281.871 874.431 281.051Z"/>
	<path fill="#FDFEFE" d="M494.329 464.686C498.307 463.989 504.431 463.795 508.269 465.073C510.16 465.702 511.882 466.78 512.753 468.635C513.95 471.187 513.276 475.274 512.323 477.815C508.802 487.208 498.21 483.014 491.28 486.644C488.863 487.91 487.276 490.088 486.597 492.707C485.422 497.246 486.185 503.08 486.287 507.768C486.488 517.071 488.198 553.668 485.654 560.493C484.803 562.775 482.676 563.525 480.626 564.406C475.534 564.761 467.18 566.057 462.907 562.739C461.318 561.504 461.159 559.555 460.898 557.685C459.79 549.727 460.503 541.251 460.484 533.204C460.454 521.06 459.219 503.5 461.357 492.064C462.374 486.621 464.225 481.467 467.641 477.047C474.403 468.297 483.887 466.015 494.329 464.686Z"/>
	<path fill="#FDFEFE" d="M315.703 436.195C316.473 436.144 317.235 436.101 318.007 436.089C321.654 436.035 325.297 436.064 328.006 438.903C332.722 443.846 330.668 458.169 330.488 464.882C333.007 464.732 335.476 464.943 337.988 465.12C338.962 465.732 339.971 466.356 340.791 467.171C342.888 469.259 344.141 472.61 344.146 475.549C344.15 478.487 343.018 481.37 340.797 483.335C337.605 486.159 334.603 485.731 330.654 485.58C330.487 495.697 328.499 535.42 332.061 541.67C334.053 545.167 338.973 544.797 341.262 548.066C342.746 550.185 342.795 553.547 342.22 555.971C341.322 559.756 338.727 561.881 335.604 563.902C333.004 564.549 330.539 564.98 327.857 565.065C322.138 565.248 316.535 564.013 312.347 559.882C309.173 556.751 307.401 552.588 306.513 548.277C304.683 539.397 305.508 529.747 305.57 520.703L305.744 485.715C303.256 485.509 301.22 485.318 299.23 483.686Q298.788 483.319 298.386 482.909Q297.983 482.499 297.624 482.051Q297.264 481.603 296.951 481.121Q296.639 480.639 296.376 480.128Q296.113 479.618 295.902 479.083Q295.692 478.548 295.536 477.995Q295.38 477.443 295.281 476.877Q295.181 476.311 295.139 475.738C294.888 472.663 295.749 469.735 297.805 467.414C300.086 464.839 302.227 464.552 305.538 464.36C305.44 457.177 303.404 445.391 308.148 439.557C310.206 437.027 312.606 436.594 315.703 436.195Z"/>
	<path fill="#FDFEFE" d="M425.994 466.162C430.887 465.832 438.402 464.789 442.283 468.413C444.685 470.657 445.161 474.241 445.197 477.361C445.297 485.887 445.003 494.434 445.044 502.967C445.124 519.806 447.115 539.174 434.307 552.286C425.606 561.193 412.48 565.369 400.242 565.512C388.059 565.654 375.832 561.366 367.139 552.674C354.532 540.069 354.478 523.051 354.433 506.375C354.249 498.623 352.708 477.863 356.037 472.003C357.567 469.31 360.116 467.448 363.092 466.653C366.567 465.725 371.05 465.82 374.161 467.8C376.316 469.171 377.406 471.174 378.022 473.6C379.152 478.049 378.838 482.842 378.761 487.394C378.561 499.339 376.821 514.705 379.582 526.134C380.978 531.912 384.223 536.976 389.401 540.037Q389.844 540.295 390.299 540.531Q390.754 540.767 391.22 540.981Q391.686 541.194 392.162 541.385Q392.638 541.576 393.123 541.743Q393.608 541.91 394.1 542.053Q394.592 542.196 395.091 542.315Q395.59 542.434 396.094 542.528Q396.598 542.623 397.106 542.692Q397.614 542.762 398.125 542.806Q398.635 542.851 399.148 542.871Q399.66 542.891 400.173 542.885Q400.685 542.88 401.197 542.849Q401.709 542.819 402.219 542.763Q402.728 542.708 403.235 542.628Q403.741 542.547 404.243 542.442Q404.745 542.337 405.241 542.208C411.065 540.691 415.932 535.968 417.962 530.339C421.453 520.655 419.522 493.641 419.197 482.203C419.092 478.491 418.362 471.928 420.666 468.773C421.886 467.103 424.11 466.605 425.994 466.162Z"/>
	<path fill="#FDFEFE" d="M202.71 466.597Q204.096 466.53 205.483 466.516C209.062 466.484 212.564 467.186 215.128 469.871C220.937 475.953 217.958 502.446 218.043 511.529C218.125 520.334 217.967 532.22 224.929 538.725C229.206 542.721 235.553 543.979 241.249 543.574C275.174 541.161 251.433 481.51 262.443 469.922C264.681 467.567 267.818 466.739 270.976 466.649C274.704 466.542 278.951 467.091 281.638 469.947C286.359 474.964 284.545 489.805 284.499 496.75C284.565 512.476 286.56 531.24 279.324 545.656C274.9 554.469 266.86 560.628 257.591 563.687C244.382 568.046 227.456 567.2 214.995 560.888C205.824 556.242 199.541 548.732 196.397 538.984C194.88 534.281 194.158 529.445 193.745 524.534C193.084 516.653 193.554 508.626 193.48 500.715C193.413 493.436 192.688 485.59 193.426 478.372C193.658 476.105 194.094 473.933 195.193 471.912C196.913 468.748 199.414 467.661 202.71 466.597Z"/>
	<path fill="#FDFEFE" d="M114.775 448.133C115.162 444.095 115.452 439.43 118.895 436.698C120.863 435.137 123.402 434.664 125.835 434.396C131.975 433.72 138.551 434.592 144.739 434.571C154.868 434.536 174.705 433.274 183.525 434.653C186.735 435.154 189.974 436.638 191.821 439.414C193.818 442.416 193.805 445.888 192.946 449.277C192.23 452.103 191.064 454.213 188.445 455.661C182.255 459.082 149.197 457.32 139.945 457.433Q139.598 474.73 139.49 492.03C148.47 491.725 172.971 489.419 179.17 494.95C181.485 497.015 182.368 499.924 182.433 502.951C182.499 506.009 181.736 508.966 179.522 511.175C174.506 516.183 164.379 515.44 157.827 515.204C151.8 514.987 145.729 514.521 139.7 514.546C139.291 521.485 138.972 528.411 139.287 535.362C139.522 542.251 141.503 554.732 137.005 560.267C134.766 563.023 131.338 564.662 127.836 565.018C124.579 565.349 121.06 564.588 118.599 562.32C115.928 559.859 115.253 556.497 114.784 553.048C113.477 543.444 114.79 532.938 114.906 523.22C115.085 508.317 114.974 493.402 114.978 478.497C114.98 468.407 115.317 458.209 114.775 448.133Z"/>
	<path fill="#FDFEFE" d="M844.499 463.668C848.678 463.14 853.131 463.16 857.318 463.604C869.414 464.888 880.711 470.567 888.382 480.102C898.215 492.325 899.966 506.315 898.334 521.416C874.936 521.906 851.47 520.894 828.056 521.183C829.087 525.863 830.438 530.106 833.341 533.983Q833.701 534.467 834.085 534.933Q834.469 535.399 834.876 535.845Q835.283 536.29 835.712 536.715Q836.14 537.14 836.59 537.543Q837.04 537.946 837.509 538.325Q837.978 538.705 838.466 539.061Q838.953 539.417 839.458 539.747Q839.963 540.078 840.484 540.383Q841.005 540.688 841.54 540.966Q842.076 541.245 842.625 541.496Q843.174 541.747 843.734 541.971Q844.295 542.194 844.866 542.389Q845.438 542.584 846.018 542.75Q846.598 542.916 847.186 543.052Q847.774 543.189 848.368 543.296Q848.962 543.403 849.561 543.48C859.401 544.785 864.213 541.69 871.712 536.21C876.256 532.889 879.249 532.817 884.567 533.691C886.173 534.309 887.932 534.961 889.354 535.941C891.299 537.28 892.722 539.431 893.098 541.769C893.59 544.825 892.377 547.823 890.606 550.26C884.488 558.676 873.32 562.682 863.465 564.381C849.421 566.801 834.464 564.786 822.678 556.365C812.01 548.743 805.037 536.59 802.953 523.725C800.631 509.39 803.5 493.978 812.154 482.164C820.255 471.106 831.162 465.686 844.499 463.668Z"/>
	<path d="M847.471 484.129C853.059 483.722 859.432 484.117 864.241 487.227C870.431 491.231 871.839 497.746 873.171 504.465L854.75 504.522L827.972 504.484C828.887 500.689 830.1 496.972 832.237 493.672C835.868 488.062 841.131 485.483 847.471 484.129Z"/>
	<path fill="#FDFEFE" d="M558.329 463.689C568.869 462.676 580.335 464.893 589.364 470.536C599.655 476.967 606.319 487.457 608.905 499.216C610.083 504.573 611.098 512.341 607.838 517.09Q607.604 517.43 607.342 517.749Q607.081 518.068 606.794 518.365Q606.506 518.661 606.196 518.932Q605.885 519.204 605.552 519.448Q605.22 519.693 604.868 519.909Q604.517 520.125 604.148 520.311Q603.78 520.497 603.398 520.652Q603.015 520.807 602.621 520.929C598.272 522.265 592.432 521.608 587.911 521.558Q571.165 521.31 554.418 521.253C549.605 521.242 543.871 520.652 539.195 521.637C538.003 521.888 537.889 521.943 537.289 522.929C537.281 525.292 537.663 527.754 538.56 529.956C540.954 535.827 545.983 539.416 551.649 541.734C560.777 545.467 572.155 544.678 580.749 539.874C584.853 537.579 588.59 534.627 592.959 532.831C593.147 532.754 593.338 532.683 593.527 532.609C595.157 533.167 596.768 533.794 598.383 534.393C601.557 536.647 605.571 539.505 606.203 543.636C606.523 545.73 605.721 547.644 604.464 549.283C597.026 558.974 582.86 563.496 571.25 564.909C556.547 566.698 541.119 563.909 529.31 554.567C519.444 546.764 513.712 535.242 512.277 522.851C510.581 508.211 514.099 492.899 523.389 481.292C532.462 469.957 544.22 465.344 558.329 463.689Z"/>
	<path d="M562.598 484.195C567.686 484.338 572.545 484.982 576.778 488.089C582.667 492.41 584.02 498.797 585.051 505.561L560.25 505.498L536.805 505.396C538.189 500.581 539.875 495.807 543.221 491.962C548.309 486.114 555.293 484.789 562.598 484.195Z"/>
	<path fill="#FDFEFE" d="M921.594 335.568L922.509 335.518C925.208 337.26 927.61 340.383 929.765 342.807C945.794 360.831 945.876 383.29 949.273 405.9Q951.517 420.62 955.482 434.973C958.681 446.864 962.412 450.988 967.313 461.321C971.555 470.264 965.543 480.201 962.564 488.732C947.597 493.577 933.153 492.876 917.773 490.788C913.866 484.649 912.131 477.38 908.211 471.269C910.425 462.318 914.086 454.014 917.357 445.43C920.036 438.401 922.392 431.056 925.776 424.334C930.025 415.895 937.886 407.624 939.992 398.335C940.308 396.941 940.327 396.266 939.611 395.042L938.296 394.873C935.438 398.926 933.719 404.334 931.404 408.765C928.986 413.396 925.62 417.469 923.213 422.165C919.883 428.66 917.769 435.645 915.164 442.443C911.806 451.208 907.983 459.613 905.453 468.687C896.834 459.062 890.399 453.239 879.501 446.437C879.056 446.065 878.868 445.729 878.568 445.239C879.803 440.946 880.702 436.398 882.305 432.231C884.299 427.048 887.069 422.139 888.894 416.892C895.405 398.172 898.008 377.301 910.956 361.459C913.771 358.014 917.759 353.989 922.436 353.683C925.103 353.509 927.568 354.726 929.499 356.484C938.145 364.355 936.721 379.096 940.818 382.786L941.445 382.028C942.739 375.4 940.039 367.106 937.118 361.163C935.021 356.894 931.828 352.723 927.101 351.271C923.362 350.122 919.556 351.042 916.225 352.928C897.509 363.524 892.956 394.951 886.394 413.846C882.591 424.796 878.055 433.162 875.056 444.803L867.494 440.981Q871.899 426.817 874.443 412.204C876.942 397.823 876.97 381.284 884.385 368.325C886.815 364.077 889.981 360.116 892.852 356.15C902.056 343.44 906.088 339.658 921.594 335.568Z"/>
	<path fill="#FDFEFE" d="M659.842 434.157C665.597 433.87 671.376 434.013 677.136 434.057C682.698 439.049 686.708 445.419 690.986 451.487C699.873 464.093 711.423 482.152 722.316 492.426C728.084 487.146 732.534 480.546 736.987 474.163C746.124 461.067 754.997 445.914 766.266 434.547C771.702 434.203 782.304 432.605 786.725 436.121C788.226 437.315 788.419 438.935 788.629 440.745C789.269 446.262 789.006 452.097 789.063 457.657L789.232 489.01Q789.271 511.031 789.086 533.051C789.014 541.653 789.225 550.521 788.482 559.089C788.372 560.358 788.221 562.27 787.301 563.227C785.167 565.446 781.225 565.665 778.313 565.746C773.77 565.872 768.754 565.372 765.389 561.964C763.931 560.487 763.017 558.66 762.631 556.628C761.867 552.601 762.756 547.399 762.807 543.248C762.918 534.293 762.864 525.331 762.86 516.375C762.759 508.69 764.907 489.887 762.2 483.811L761.316 483.493C758.286 484.702 747.452 501.419 744.473 505.43C739.996 511.458 729.591 527.782 722.163 528.576C712.614 529.597 691.772 489.702 682.606 482.995C682.439 482.873 682.269 482.756 682.1 482.636C679.358 497.214 684.463 556.248 679.343 562.484C677.121 565.191 671.246 565.279 667.994 565.309C663.988 565.346 659.422 565.086 656.49 561.982C654.819 560.212 654.618 557.599 654.433 555.289C654.012 550.02 654.384 544.527 654.447 539.24Q654.577 527.099 654.521 514.957C654.483 489.604 653.884 464.171 654.532 438.83C656.201 436.959 657.685 435.505 659.842 434.157Z"/>
	<path fill="#191919" d="M114.387 456.381C114.347 454.168 113.697 449.993 114.775 448.133C115.317 458.209 114.98 468.407 114.978 478.497C114.974 493.402 115.085 508.317 114.906 523.22C114.79 532.938 113.477 543.444 114.784 553.048C115.253 556.497 115.928 559.859 118.599 562.32C121.06 564.588 124.579 565.349 127.836 565.018C131.338 564.662 134.766 563.023 137.005 560.267C141.503 554.732 139.522 542.251 139.287 535.362C145.475 538.267 170.284 566.903 175.689 573.545Q167.017 574.432 158.463 576.11Q156.119 576.609 153.787 577.164Q151.456 577.72 149.139 578.332Q146.822 578.945 144.521 579.614Q142.219 580.283 139.935 581.008Q137.651 581.733 135.385 582.514Q133.119 583.295 130.873 584.13Q128.627 584.966 126.402 585.857Q124.177 586.747 121.974 587.692Q119.771 588.637 117.593 589.635Q115.414 590.633 113.26 591.685Q111.106 592.736 108.979 593.84Q106.851 594.943 104.752 596.098Q102.652 597.254 100.581 598.46Q98.5099 599.666 96.4691 600.923Q94.4283 602.18 92.4188 603.486Q90.4094 604.792 88.4324 606.147Q86.4555 607.501 84.5123 608.904Q82.5691 610.307 80.6608 611.757Q78.7524 613.207 76.8801 614.703Q75.0078 616.199 73.1726 617.74Q71.3375 619.282 69.5405 620.868Q67.7436 622.453 65.986 624.083Q64.2284 625.712 62.5111 627.384Q60.7939 629.056 59.118 630.769Q57.4422 632.482 55.8087 634.236Q54.1752 635.99 52.5852 637.783Q50.9951 639.576 49.4493 641.408Q47.9035 643.239 46.403 645.108Q44.9025 646.977 43.4481 648.882Q41.9937 650.786 40.5863 652.726Q39.179 654.666 37.8195 656.64Q36.4599 658.614 35.1491 660.62C33.7778 653.654 33.4771 646.296 33.1182 639.218C31.5426 608.145 34.9222 576.38 45.7062 547.059C56.7403 517.059 75.0494 492.305 97.8285 470.149C102.784 465.329 108.056 459.313 114.387 456.381Z"/>
	<path fill="#FDFEFE" d="M920.648 508.164C929.945 509.567 938.982 510.107 948.366 510.053C950.345 519.406 951.213 529.076 952.548 538.542Q955.208 558.304 960.174 577.616C963.882 591.904 972.478 603.538 974.901 618.135C968.63 611.832 963.528 605.102 955.754 600.475C961.322 611.581 971.79 618.134 979.05 627.819L979.602 628.565C981.356 630.897 981.981 634.349 982.537 637.179C983.915 644.191 983.86 651.508 984.995 658.592C987.527 674.39 991.085 690.072 994.63 705.671Q993.676 706.519 992.678 707.313C985.078 713.479 973.128 717.074 963.381 715.819C960.451 715.442 956.934 714.163 955.512 711.356C953.283 706.958 956.35 696.464 954.389 690.294C950.577 678.293 942.053 662.542 936.714 650.373C927.136 628.537 921.256 604.328 906.569 585.211C909.326 582.464 911.562 579.407 913.504 576.042C917.699 568.772 920.303 560.665 923.962 553.12C928.712 543.325 939.835 528.311 940.462 517.76C940.548 516.314 940.686 514.589 939.686 513.433L938.898 513.57C936.508 517.316 935.433 522.776 933.791 526.979C932.042 531.457 929.716 535.632 927.305 539.778C924.86 544.13 922.387 548.487 920.275 553.012C916.744 560.578 911.212 577.472 905.675 582.956C903.725 584.889 900.973 585.453 898.555 586.588C891.353 589.967 893.476 602.22 892.794 608.779C891.657 619.713 884.356 631.762 878.7 641.019C876.288 644.967 873.489 649.006 871.695 653.273C868.735 660.315 870.013 668.641 867.276 676.072C861.702 691.206 849.914 696.409 836.142 702.818C836.374 705.209 836.591 707.637 836.519 710.041C836.411 713.619 835.979 717.334 833.242 719.896C829.674 721.077 823.43 719.651 819.893 718.564C815.551 717.23 812.008 714.657 809.91 710.57C805.979 702.911 808.178 695.424 808.471 687.404C808.643 682.67 807.972 678.541 809.418 673.893C812.054 665.426 816.988 657.497 820.907 649.558C826.113 639.015 830.624 628.423 834.479 617.317C843.552 609.364 853.667 602.516 861.769 593.494C851.847 597.268 844.197 604.912 836.327 611.778Q839.342 598.874 841.964 585.885C854.488 586.585 867.265 586.793 879.304 582.738C892.599 578.26 907.131 568.344 913.341 555.377C916.143 549.527 916.466 544.033 914.28 537.97C919.014 528.245 920.194 518.84 920.648 508.164Z"/>
	<path d="M822.076 691.267C824.11 693.251 823.528 697.618 823.564 700.326C824.793 700.536 826.028 700.739 827.249 700.996C828.639 701.289 829.803 701.527 830.601 702.75L829.473 703.571C826.92 703.568 823.909 703.788 821.664 702.362C820.341 701.523 819.471 700.384 819.238 698.805C818.855 696.207 820.651 693.27 822.076 691.267Z"/>
	<path d="M970.507 694.657C972.256 694.395 974.232 694.243 975.953 694.673C976.85 694.897 976.862 694.764 977.35 695.578C974.709 698.013 969.515 698.467 966.117 699.047Q965.396 699.171 964.672 699.275C962.759 699.545 961.436 699.619 959.807 698.413L959.931 697.591C962.947 695.775 967.078 695.268 970.507 694.657Z"/>
	<path d="M937.902 607.359C943.036 609.789 963.611 632.239 967.827 637.676C967.244 637.55 967.047 637.527 966.524 637.354C959.145 634.919 941.236 614.416 937.902 607.359Z"/>
	<path d="M864.403 620.953L865.794 621.701C866.027 622.227 866.113 622.358 866.234 623.001C867.308 628.723 865.899 672.354 863.895 675.868C863.802 675.723 863.701 675.583 863.617 675.432C859.737 668.482 862.418 629.295 864.403 620.953Z"/>
</svg>
