<?xml version="1.0" encoding="utf-8"?>
<svg xmlns="http://www.w3.org/2000/svg" xmlns:xlink="http://www.w3.org/1999/xlink" width="1024" height="1024">
    <path fill="none" d="M97.3782 407.452C141.484 408.555 185.883 408.087 230.005 407.704L229.794 495.878L229.507 496.673C228.03 497.519 174.742 496.992 167.476 497.15Q145.353 467.653 122.305 438.873C114.036 428.367 106.112 417.582 97.3782 407.452Z"/>
    <path fill="none" d="M96.6566 511.636L229.622 511.651C230.266 543.155 229.843 574.755 229.936 606.269C222.139 606.646 214.131 606.211 206.317 606.15C194.031 606.055 181.721 606.118 169.44 605.733L119.842 540.806C112.209 531.002 104.155 521.558 96.6566 511.636Z"/>
    <path fill="white" d="M532.673 449.378C544.88 462.56 555.499 477.608 566.866 491.556L582.428 510.424C585.408 514.002 588.846 517.554 591.355 521.47C585.733 529.49 579.124 537.042 573.174 544.85C565.125 555.411 557.894 566.735 548.471 576.16Q547.322 577.331 546.134 578.462Q544.947 579.594 543.722 580.685Q542.497 581.776 541.236 582.825Q539.975 583.875 538.68 584.881Q537.385 585.888 536.057 586.85Q534.729 587.813 533.369 588.731Q532.009 589.648 530.62 590.52Q529.23 591.392 527.812 592.216Q526.394 593.041 524.949 593.818Q523.505 594.594 522.035 595.322Q520.565 596.05 519.071 596.728Q517.578 597.406 516.062 598.034Q514.547 598.662 513.011 599.239Q511.475 599.816 509.921 600.341Q508.367 600.866 506.797 601.339Q505.226 601.811 503.64 602.231C481.476 608.156 455.035 606.062 432.06 605.963L353.623 605.603C353.289 574.335 353.637 543.029 353.573 511.755L484.839 511.765L532.673 449.378Z"/>
    <path fill="white" d="M533.202 299.178C538.764 298.658 544.489 298.915 550.076 298.935L577.092 299.001L661.854 298.95L925.581 298.978C919.393 308.324 912.135 317.189 905.389 326.152C898.571 335.21 892.089 344.515 885.428 353.689C875.602 366.659 866.312 380.037 856.821 393.253C829.726 392.348 802.394 392.974 775.276 392.975L621.586 392.993C608.151 376.456 595.259 359.439 581.953 342.786C572.509 330.965 563.71 318.594 551.667 309.196C546.052 304.813 539.649 302.076 533.202 299.178Z"/>
    <path fill="white" d="M684.694 408.484L780.002 408.48L779.907 626.369L779.937 689.897C779.944 701.724 780.333 713.7 779.8 725.509C748.177 725.146 716.487 725.349 684.861 725.559L684.694 408.484Z"/>
    <path fill="white" d="M243.887 409.488L340.381 409.472L340.423 592.613Q339.861 658.747 340.099 724.884L244.104 724.589L243.887 409.488Z"/>
    <path fill="white" d="M244.035 299.365L417.866 299.441L465.443 299.307C478.142 299.269 491.501 298.366 503.985 300.973C521.151 304.558 537.23 313.99 549.549 326.356C558.914 335.758 566.508 347.165 574.919 357.432C602.442 391.027 618.901 405.28 618.581 451.613C618.457 469.718 613.802 489.474 604.071 504.917C600.363 510.802 595.758 516.101 591.355 521.47C588.846 517.554 585.408 514.002 582.428 510.424L566.866 491.556C555.499 477.608 544.88 462.56 532.673 449.378L510.007 420.976C503.291 412.431 496.801 403.682 489.783 395.381L338.915 395.689C307.253 395.639 275.513 395.119 243.863 395.664L244.035 299.365Z"/>
</svg>
